<?xml version="1.0" encoding="utf-8"?>
<!-- Generator: Adobe Illustrator 21.0.0, SVG Export Plug-In . SVG Version: 6.00 Build 0)  -->
<svg version="1.1" id="Layer_1" xmlns="http://www.w3.org/2000/svg" xmlns:xlink="http://www.w3.org/1999/xlink" x="0px" y="0px"
	 viewBox="0 0 1260.1 846.3" style="enable-background:new 0 0 1260.1 846.3;" xml:space="preserve">
<style type="text/css">
	.st0{fill:#FFDA95;}
	.st1{fill:#8FFF9A;}
	.st2{fill:#DAFFEC;}
	.st3{opacity:0.41;}
	.st4{fill:#EFFF10;}
	.st5{opacity:0.68;}
	.st6{fill:#F0FFD6;}
	.st7{fill:#E6FFFC;}
	.st8{fill:#DEFF5D;}
	.st9{fill:#BEFFB8;}
	.st10{fill:#F1FFEA;}
	.st11{fill:#FFFED2;}
	.st12{opacity:0.33;}
	.st13{fill:#DAFFD8;}
	.st14{fill:#99FFF1;}
	.st15{fill:#C6FFAA;}
	.st16{fill:#DAFFCE;}
	.st17{fill:#EAFFCE;}
	.st18{fill:#D6FFCE;}
	.st19{fill:#FFDCE5;}
	.st20{fill:#FA89FF;}
	.st21{opacity:0.56;}
	.st22{fill:#EAFFCA;}
	.st23{fill:#E6FFF5;}
	.st24{fill:#00D8D2;}
	.st25{fill:#FFF5CC;}
	.st26{fill:#F2FFC8;}
	.st27{fill:#FFD2DF;}
	.st28{fill:#EBFFD2;}
	.st29{fill:#E1FFCC;}
	.st30{fill:#BEFFBE;}
	.st31{fill:#FFFABC;}
	.st32{fill:#E6FFDE;}
	.st33{fill:#EAFFF7;}
	.st34{fill:#FAFFD2;}
	.st35{opacity:0.4;}
	.st36{fill:#FFFDB6;}
	.st37{fill:#FFEAD8;}
	.st38{fill:#CCF5FF;}
	.st39{fill:#ECFFD6;}
	.st40{fill:#FFC1B8;}
	.st41{fill:#F7FFA7;}
	.st42{fill:#F0FFF6;}
	.st43{fill:#D0E8FF;}
	.st44{fill:#E2FFF1;}
	.st45{fill:#FFFBDC;}
	.st46{fill:#FFD3BC;}
	.st47{fill:#FBFF95;}
	.st48{fill:#F1FFD6;}
	.st49{fill:#FFE4F3;}
	.st50{fill:#CCFFEB;}
	.st51{fill:#FFE9C6;}
	.st52{fill:#D4CEFF;}
	.st53{fill:#FFD2EA;}
	.st54{fill:#E6EBFF;}
	.st55{fill:#CCFFD6;}
	.st56{fill:#BCFFA5;}
	.st57{fill:#F6FFD2;}
	.st58{fill:#FFF8E0;}
	.st59{fill:#DCFFD6;}
	.st60{fill:#D8FFF8;}
	.st61{fill:#D6FFD7;}
	.st62{fill:#F4FFDE;}
	.st63{fill:#DAE6FF;}
	.st64{fill:#E2FFF7;}
	.st65{fill:#C4FFD2;}
	.st66{fill:#DEEBFF;}
	.st67{fill:#F4FFDA;}
	.st68{fill:#F1FFB0;}
	.st69{fill:#FFD4F2;}
	.st70{fill:#BCACFF;}
	.st71{fill:#E2FFF8;}
	.st72{fill:#DDFFD8;}
	.st73{fill:#F6F0FF;}
	.st74{fill:#E2D0FF;}
	.st75{fill:#CEFFD9;}
	.st76{opacity:0.36;}
	.st77{fill:#DEFFE8;}
	.st78{fill:#F2E2FF;}
	.st79{fill:#E2D2FF;}
	.st80{opacity:0.53;}
	.st81{fill:#FFE2EC;}
	.st82{fill:#E2F2FF;}
	.st83{opacity:0.34;}
	.st84{fill:#FFD0F2;}
	.st85{fill:#DEEFFF;}
	.st86{fill:#D6FFE4;}
	.st87{opacity:0.38;}
	.st88{fill:#F9FFE4;}
	.st89{fill:#EBFFD8;}
</style>
<g>
	<rect class="st0" width="42" height="40.3"/>
</g>
<g>
	<rect y="40.3" class="st1" width="42" height="40.3"/>
</g>
<g>
	<rect y="80.5" class="st2" width="42" height="40.3"/>
</g>
<g class="st3">
	<rect y="120.8" class="st4" width="42" height="40.3"/>
</g>
<g>
	<rect y="161.1" class="st4" width="42" height="40.3"/>
</g>
<g>
	<rect y="201.3" class="st4" width="42" height="40.3"/>
</g>
<g>
	<rect y="241.6" class="st4" width="42" height="40.3"/>
</g>
<g class="st5">
	<rect y="281.9" class="st4" width="42" height="40.3"/>
</g>
<g>
	<rect y="322.1" class="st6" width="42" height="40.3"/>
</g>
<g>
	<rect y="362.4" class="st7" width="42" height="40.3"/>
</g>
<g>
	<rect x="42.1" class="st8" width="42" height="40.3"/>
</g>
<g>
	<rect x="42.1" y="40.3" class="st9" width="42" height="40.3"/>
</g>
<g>
	<rect x="42.1" y="80.5" class="st10" width="42" height="40.3"/>
</g>
<g>
	<rect x="42.1" y="120.8" class="st11" width="42" height="40.3"/>
</g>
<g class="st12">
	<rect x="42.1" y="161.1" class="st4" width="42" height="40.3"/>
</g>
<g>
	<rect x="42.1" y="201.3" class="st13" width="42" height="40.3"/>
</g>
<g>
	<rect x="42.1" y="241.6" class="st4" width="42" height="40.3"/>
</g>
<g>
	<rect x="42.1" y="281.9" class="st4" width="42" height="40.3"/>
</g>
<g class="st5">
	<rect x="42.1" y="322.1" class="st4" width="42" height="40.3"/>
</g>
<g>
	<rect x="42.1" y="362.4" class="st4" width="42" height="40.3"/>
</g>
<g>
	<rect x="84.1" class="st14" width="42" height="40.3"/>
</g>
<g>
	<rect x="84.1" y="40.3" class="st15" width="42" height="40.3"/>
</g>
<g>
	<rect x="84.1" y="80.5" class="st16" width="42" height="40.3"/>
</g>
<g>
	<rect x="84.1" y="120.8" class="st17" width="42" height="40.3"/>
</g>
<g>
	<rect x="84.1" y="161.1" class="st18" width="42" height="40.3"/>
</g>
<g>
	<rect x="84.1" y="201.3" class="st4" width="42" height="40.3"/>
</g>
<g>
	<rect x="84.1" y="241.6" class="st4" width="42" height="40.3"/>
</g>
<g>
	<rect x="84.1" y="281.9" class="st19" width="42" height="40.3"/>
</g>
<g>
	<rect x="84.1" y="322.1" class="st4" width="42" height="40.3"/>
</g>
<g>
	<rect x="84.1" y="362.4" class="st4" width="42" height="40.3"/>
</g>
<g>
	<rect x="126.2" class="st20" width="42" height="40.3"/>
</g>
<g class="st21">
	<rect x="126.2" y="40.3" class="st4" width="42" height="40.3"/>
</g>
<g>
	<rect x="126.2" y="80.5" class="st22" width="42" height="40.3"/>
</g>
<g class="st21">
	<rect x="126.2" y="120.8" class="st4" width="42" height="40.3"/>
</g>
<g>
	<rect x="126.2" y="161.1" class="st4" width="42" height="40.3"/>
</g>
<g>
	<rect x="126.2" y="201.3" class="st23" width="42" height="40.3"/>
</g>
<g>
	<rect x="126.2" y="241.6" class="st4" width="42" height="40.3"/>
</g>
<g>
	<rect x="126.2" y="281.9" class="st4" width="42" height="40.3"/>
</g>
<g>
	<rect x="126.2" y="322.1" class="st4" width="42" height="40.3"/>
</g>
<g>
	<rect x="126.2" y="362.4" class="st4" width="42" height="40.3"/>
</g>
<g>
	<rect x="168.3" class="st24" width="42" height="40.3"/>
</g>
<g class="st3">
	<rect x="168.3" y="40.3" class="st4" width="42" height="40.3"/>
</g>
<g>
	<rect x="168.3" y="80.5" class="st25" width="42" height="40.3"/>
</g>
<g>
	<rect x="168.3" y="120.8" class="st26" width="42" height="40.3"/>
</g>
<g>
	<rect x="168.3" y="161.1" class="st4" width="42" height="40.3"/>
</g>
<g>
	<rect x="168.3" y="201.3" class="st4" width="42" height="40.3"/>
</g>
<g>
	<rect x="168.3" y="241.6" class="st27" width="42" height="40.3"/>
</g>
<g>
	<rect x="168.3" y="281.9" class="st4" width="42" height="40.3"/>
</g>
<g>
	<rect x="168.3" y="322.1" class="st4" width="42" height="40.3"/>
</g>
<g>
	<rect x="168.3" y="362.4" class="st28" width="42" height="40.3"/>
</g>
<g>
	<rect x="210.4" class="st29" width="42" height="40.3"/>
</g>
<g>
	<rect x="210.4" y="40.3" class="st30" width="42" height="40.3"/>
</g>
<g>
	<rect x="210.4" y="80.5" class="st31" width="42" height="40.3"/>
</g>
<g>
	<rect x="210.4" y="120.8" class="st4" width="42" height="40.3"/>
</g>
<g>
	<rect x="210.4" y="161.1" class="st32" width="42" height="40.3"/>
</g>
<g>
	<rect x="210.4" y="201.3" class="st4" width="42" height="40.3"/>
</g>
<g>
	<rect x="210.4" y="241.6" class="st4" width="42" height="40.3"/>
</g>
<g>
	<rect x="210.4" y="281.9" class="st4" width="42" height="40.3"/>
</g>
<g>
	<rect x="210.4" y="322.1" class="st33" width="42" height="40.3"/>
</g>
<g>
	<rect x="210.4" y="362.4" class="st4" width="42" height="40.3"/>
</g>
<g>
	<rect x="252.4" class="st34" width="42" height="40.3"/>
</g>
<g class="st35">
	<rect x="252.4" y="40.3" class="st4" width="42" height="40.3"/>
</g>
<g>
	<rect x="252.4" y="80.5" class="st36" width="42" height="40.3"/>
</g>
<g>
	<rect x="252.4" y="120.8" class="st37" width="42" height="40.3"/>
</g>
<g>
	<rect x="252.4" y="161.1" class="st4" width="42" height="40.3"/>
</g>
<g>
	<rect x="252.4" y="201.3" class="st4" width="42" height="40.3"/>
</g>
<g>
	<rect x="252.4" y="241.6" class="st38" width="42" height="40.3"/>
</g>
<g>
	<rect x="252.4" y="281.9" class="st4" width="42" height="40.3"/>
</g>
<g>
	<rect x="252.4" y="322.1" class="st4" width="42" height="40.3"/>
</g>
<g>
	<rect x="252.4" y="362.4" class="st4" width="42" height="40.3"/>
</g>
<g>
	<rect x="294.5" class="st39" width="42" height="40.3"/>
</g>
<g>
	<rect x="294.5" y="40.3" class="st40" width="42" height="40.3"/>
</g>
<g>
	<rect x="294.5" y="80.5" class="st41" width="42" height="40.3"/>
</g>
<g>
	<rect x="294.5" y="120.8" class="st4" width="42" height="40.3"/>
</g>
<g>
	<rect x="294.5" y="161.1" class="st42" width="42" height="40.3"/>
</g>
<g>
	<rect x="294.5" y="201.3" class="st4" width="42" height="40.3"/>
</g>
<g>
	<rect x="294.5" y="241.6" class="st4" width="42" height="40.3"/>
</g>
<g>
	<rect x="294.5" y="281.9" class="st43" width="42" height="40.3"/>
</g>
<g>
	<rect x="294.5" y="322.1" class="st4" width="42" height="40.3"/>
</g>
<g>
	<rect x="294.5" y="362.4" class="st44" width="42" height="40.3"/>
</g>
<g>
	<rect x="336.6" class="st45" width="42" height="40.3"/>
</g>
<g>
	<rect x="336.6" y="40.3" class="st46" width="42" height="40.3"/>
</g>
<g>
	<rect x="336.6" y="80.5" class="st47" width="42" height="40.3"/>
</g>
<g>
	<rect x="336.6" y="120.8" class="st4" width="42" height="40.3"/>
</g>
<g>
	<rect x="336.6" y="161.1" class="st4" width="42" height="40.3"/>
</g>
<g>
	<rect x="336.6" y="201.3" class="st48" width="42" height="40.3"/>
</g>
<g>
	<rect x="336.6" y="241.6" class="st49" width="42" height="40.3"/>
</g>
<g>
	<rect x="336.6" y="281.9" class="st4" width="42" height="40.3"/>
</g>
<g>
	<rect x="336.6" y="322.1" class="st4" width="42" height="40.3"/>
</g>
<g>
	<rect x="336.6" y="362.4" class="st4" width="42" height="40.3"/>
</g>
<g>
	<rect x="378.7" class="st50" width="42" height="40.3"/>
</g>
<g>
	<rect x="378.7" y="40.3" class="st51" width="42" height="40.3"/>
</g>
<g>
	<rect x="378.7" y="80.5" class="st52" width="42" height="40.3"/>
</g>
<g>
	<rect x="378.7" y="120.8" class="st53" width="42" height="40.3"/>
</g>
<g>
	<rect x="378.7" y="161.1" class="st54" width="42" height="40.3"/>
</g>
<g>
	<rect x="378.7" y="201.3" class="st55" width="42" height="40.3"/>
</g>
<g>
	<rect x="378.7" y="241.6" class="st56" width="42" height="40.3"/>
</g>
<g>
	<rect x="378.7" y="281.9" class="st4" width="42" height="40.3"/>
</g>
<g>
	<rect x="378.7" y="322.1" class="st4" width="42" height="40.3"/>
</g>
<g>
	<rect x="378.7" y="362.4" class="st4" width="42" height="40.3"/>
</g>
<g>
	<rect x="420.7" class="st57" width="42" height="40.3"/>
</g>
<g>
	<rect x="420.7" y="40.3" class="st58" width="42" height="40.3"/>
</g>
<g>
	<rect x="420.7" y="80.5" class="st59" width="42" height="40.3"/>
</g>
<g>
	<rect x="420.7" y="120.8" class="st4" width="42" height="40.3"/>
</g>
<g>
	<rect x="420.7" y="161.1" class="st4" width="42" height="40.3"/>
</g>
<g>
	<rect x="420.7" y="201.3" class="st4" width="42" height="40.3"/>
</g>
<g>
	<rect x="420.7" y="241.6" class="st4" width="42" height="40.3"/>
</g>
<g>
	<rect x="420.7" y="281.9" class="st60" width="42" height="40.3"/>
</g>
<g>
	<rect x="420.7" y="322.1" class="st4" width="42" height="40.3"/>
</g>
<g>
	<rect x="420.7" y="362.4" class="st4" width="42" height="40.3"/>
</g>
<g>
	<rect x="462.8" class="st61" width="42" height="40.3"/>
</g>
<g>
	<rect x="462.8" y="40.3" class="st62" width="42" height="40.3"/>
</g>
<g>
	<rect x="462.8" y="80.5" class="st13" width="42" height="40.3"/>
</g>
<g>
	<rect x="462.8" y="120.8" class="st63" width="42" height="40.3"/>
</g>
<g>
	<rect x="462.8" y="161.1" class="st4" width="42" height="40.3"/>
</g>
<g>
	<rect x="462.8" y="201.3" class="st4" width="42" height="40.3"/>
</g>
<g>
	<rect x="462.8" y="241.6" class="st4" width="42" height="40.3"/>
</g>
<g class="st5">
	<rect x="462.8" y="281.9" class="st4" width="42" height="40.3"/>
</g>
<g>
	<rect x="462.8" y="322.1" class="st4" width="42" height="40.3"/>
</g>
<g>
	<rect x="462.8" y="362.4" class="st4" width="42" height="40.3"/>
</g>
<g>
	<rect x="504.9" class="st64" width="42" height="40.3"/>
</g>
<g>
	<rect x="504.9" y="40.3" class="st65" width="42" height="40.3"/>
</g>
<g>
	<rect x="504.9" y="80.5" class="st66" width="42" height="40.3"/>
</g>
<g>
	<rect x="504.9" y="120.8" class="st67" width="42" height="40.3"/>
</g>
<g>
	<rect x="504.9" y="161.1" class="st68" width="42" height="40.3"/>
</g>
<g>
	<rect x="504.9" y="201.3" class="st4" width="42" height="40.3"/>
</g>
<g>
	<rect x="504.9" y="241.6" class="st69" width="42" height="40.3"/>
</g>
<g>
	<rect x="504.9" y="281.9" class="st4" width="42" height="40.3"/>
</g>
<g>
	<rect x="504.9" y="322.1" class="st4" width="42" height="40.3"/>
</g>
<g>
	<rect x="504.9" y="362.4" class="st4" width="42" height="40.3"/>
</g>
<g>
	<rect x="546.9" class="st70" width="42" height="40.3"/>
</g>
<g>
	<rect x="546.9" y="40.3" class="st71" width="42" height="40.3"/>
</g>
<g>
	<rect x="546.9" y="80.5" class="st72" width="42" height="40.3"/>
</g>
<g>
	<rect x="546.9" y="120.8" class="st4" width="42" height="40.3"/>
</g>
<g>
	<rect x="546.9" y="161.1" class="st4" width="42" height="40.3"/>
</g>
<g>
	<rect x="546.9" y="201.3" class="st4" width="42" height="40.3"/>
</g>
<g>
	<rect x="546.9" y="241.6" class="st4" width="42" height="40.3"/>
</g>
<g>
	<rect x="546.9" y="281.9" class="st4" width="42" height="40.3"/>
</g>
<g>
	<rect x="546.9" y="322.1" class="st4" width="42" height="40.3"/>
</g>
<g>
	<rect x="546.9" y="362.4" class="st4" width="42" height="40.3"/>
</g>
<g>
	<rect x="589" class="st73" width="42" height="40.3"/>
</g>
<g>
	<rect x="589" y="40.3" class="st74" width="42" height="40.3"/>
</g>
<g>
	<rect x="589" y="80.5" class="st75" width="42" height="40.3"/>
</g>
<g class="st76">
	<rect x="589" y="120.8" class="st4" width="42" height="40.3"/>
</g>
<g>
	<rect x="589" y="161.1" class="st4" width="42" height="40.3"/>
</g>
<g class="st5">
	<rect x="589" y="201.3" class="st4" width="42" height="40.3"/>
</g>
<g>
	<rect x="589" y="241.6" class="st4" width="42" height="40.3"/>
</g>
<g>
	<rect x="589" y="281.9" class="st4" width="42" height="40.3"/>
</g>
<g>
	<rect x="589" y="322.1" class="st4" width="42" height="40.3"/>
</g>
<g>
	<rect x="589" y="362.4" class="st4" width="42" height="40.3"/>
</g>
<g>
	<rect x="631.1" class="st77" width="42" height="40.3"/>
</g>
<g>
	<rect x="631.1" y="40.3" class="st78" width="42" height="40.3"/>
</g>
<g>
	<rect x="631.1" y="80.5" class="st79" width="42" height="40.3"/>
</g>
<g class="st80">
	<rect x="631.1" y="120.8" class="st4" width="42" height="40.3"/>
</g>
<g class="st35">
	<rect x="631.1" y="161.1" class="st4" width="42" height="40.3"/>
</g>
<g>
	<rect x="631.1" y="201.3" class="st4" width="42" height="40.3"/>
</g>
<g class="st80">
	<rect x="631.1" y="241.6" class="st4" width="42" height="40.3"/>
</g>
<g>
	<rect x="631.1" y="281.9" class="st81" width="42" height="40.3"/>
</g>
<g>
	<rect x="631.1" y="322.1" class="st4" width="42" height="40.3"/>
</g>
<g>
	<rect x="631.1" y="362.4" class="st82" width="42" height="40.3"/>
</g>
<g class="st83">
	<rect x="673.2" class="st4" width="42" height="40.3"/>
</g>
<g>
	<rect x="673.2" y="40.3" class="st84" width="42" height="40.3"/>
</g>
<g>
	<rect x="673.2" y="80.5" class="st85" width="42" height="40.3"/>
</g>
<g>
	<rect x="673.2" y="120.8" class="st86" width="42" height="40.3"/>
</g>
<g>
	<rect x="673.2" y="161.1" class="st4" width="42" height="40.3"/>
</g>
<g class="st87">
	<rect x="673.2" y="201.3" class="st4" width="42" height="40.3"/>
</g>
<g>
	<rect x="673.2" y="241.6" class="st4" width="42" height="40.3"/>
</g>
<g>
	<rect x="673.2" y="281.9" class="st4" width="42" height="40.3"/>
</g>
<g>
	<rect x="673.2" y="322.1" class="st4" width="42" height="40.3"/>
</g>
<g>
	<rect x="673.2" y="362.4" class="st4" width="42" height="40.3"/>
</g>
<g class="st5">
	<rect y="402.6" class="st4" width="42" height="40.3"/>
</g>
<g>
	<rect x="42.1" y="402.6" class="st4" width="42" height="40.3"/>
</g>
<g>
	<rect x="84.1" y="402.6" class="st4" width="42" height="40.3"/>
</g>
<g>
	<rect x="126.2" y="402.6" class="st4" width="42" height="40.3"/>
</g>
<g>
	<rect x="168.3" y="402.6" class="st4" width="42" height="40.3"/>
</g>
<g>
	<rect x="210.4" y="402.6" class="st4" width="42" height="40.3"/>
</g>
<g>
	<rect x="252.4" y="402.6" class="st4" width="42" height="40.3"/>
</g>
<g>
	<rect x="294.5" y="402.6" class="st4" width="42" height="40.3"/>
</g>
<g>
	<rect x="336.6" y="402.6" class="st4" width="42" height="40.3"/>
</g>
<g>
	<rect x="378.7" y="402.6" class="st4" width="42" height="40.3"/>
</g>
<g>
	<rect x="420.7" y="402.6" class="st4" width="42" height="40.3"/>
</g>
<g>
	<rect x="462.8" y="402.6" class="st4" width="42" height="40.3"/>
</g>
<g>
	<rect x="504.9" y="402.6" class="st4" width="42" height="40.3"/>
</g>
<g>
	<rect x="546.9" y="402.6" class="st4" width="42" height="40.3"/>
</g>
<g>
	<rect x="589" y="402.6" class="st4" width="42" height="40.3"/>
</g>
<g>
	<rect x="631.1" y="402.6" class="st4" width="42" height="40.3"/>
</g>
<g>
	<rect x="673.2" y="402.6" class="st4" width="42" height="40.3"/>
</g>
<g>
	<rect x="715.1" class="st73" width="42" height="40.3"/>
</g>
<g class="st5">
	<rect x="715.1" y="40.3" class="st4" width="42" height="40.3"/>
</g>
<g>
	<rect x="715.1" y="80.5" class="st85" width="42" height="40.3"/>
</g>
<g>
	<rect x="715.1" y="120.8" class="st86" width="42" height="40.3"/>
</g>
<g>
	<rect x="715.1" y="161.1" class="st4" width="42" height="40.3"/>
</g>
<g class="st87">
	<rect x="715.1" y="201.3" class="st4" width="42" height="40.3"/>
</g>
<g>
	<rect x="715.1" y="241.6" class="st88" width="42" height="40.3"/>
</g>
<g>
	<rect x="715.1" y="281.9" class="st4" width="42" height="40.3"/>
</g>
<g>
	<rect x="715.1" y="322.1" class="st4" width="42" height="40.3"/>
</g>
<g>
	<rect x="715.1" y="362.4" class="st4" width="42" height="40.3"/>
</g>
<g>
	<rect x="715.1" y="402.6" class="st4" width="42" height="40.3"/>
</g>
<g>
	<rect y="443" class="st34" width="42" height="40.3"/>
</g>
<g>
	<rect x="42.1" y="443" class="st4" width="42" height="40.3"/>
</g>
<g>
	<rect x="84.1" y="443" class="st4" width="42" height="40.3"/>
</g>
<g>
	<rect x="126.2" y="443" class="st4" width="42" height="40.3"/>
</g>
<g>
	<rect x="168.3" y="443" class="st4" width="42" height="40.3"/>
</g>
<g>
	<rect x="210.4" y="443" class="st4" width="42" height="40.3"/>
</g>
<g>
	<rect x="252.4" y="443" class="st4" width="42" height="40.3"/>
</g>
<g>
	<rect x="294.5" y="443" class="st4" width="42" height="40.3"/>
</g>
<g>
	<rect x="336.6" y="443" class="st4" width="42" height="40.3"/>
</g>
<g>
	<rect x="378.7" y="443" class="st4" width="42" height="40.3"/>
</g>
<g>
	<rect x="420.7" y="443" class="st4" width="42" height="40.3"/>
</g>
<g>
	<rect x="757.4" class="st57" width="42" height="40.3"/>
</g>
<g>
	<rect x="757.4" y="40.3" class="st58" width="42" height="40.3"/>
</g>
<g>
	<rect x="757.4" y="80.5" class="st59" width="42" height="40.3"/>
</g>
<g>
	<rect x="757.4" y="120.8" class="st4" width="42" height="40.3"/>
</g>
<g>
	<rect x="757.4" y="161.1" class="st4" width="42" height="40.3"/>
</g>
<g>
	<rect x="757.4" y="201.3" class="st4" width="42" height="40.3"/>
</g>
<g>
	<rect x="757.4" y="241.6" class="st4" width="42" height="40.3"/>
</g>
<g>
	<rect x="757.4" y="281.9" class="st60" width="42" height="40.3"/>
</g>
<g>
	<rect x="757.4" y="322.1" class="st4" width="42" height="40.3"/>
</g>
<g>
	<rect x="757.4" y="362.4" class="st89" width="42" height="40.3"/>
</g>
<g>
	<rect x="757.4" y="402.6" class="st4" width="42" height="40.3"/>
</g>
<g>
	<rect x="757.4" y="443" class="st4" width="42" height="40.3"/>
</g>
<g>
	<rect x="462.8" y="443" class="st4" width="42" height="40.3"/>
</g>
<g>
	<rect x="504.9" y="443" class="st4" width="42" height="40.3"/>
</g>
<g>
	<rect x="546.9" y="443" class="st4" width="42" height="40.3"/>
</g>
<g>
	<rect x="589" y="443" class="st4" width="42" height="40.3"/>
</g>
<g>
	<rect x="631.1" y="443" class="st4" width="42" height="40.3"/>
</g>
<g>
	<rect x="673.2" y="443" class="st4" width="42" height="40.3"/>
</g>
<g>
	<rect x="715.1" y="443" class="st4" width="42" height="40.3"/>
</g>
<g>
	<rect y="482.8" class="st4" width="42" height="40.3"/>
</g>
<g>
	<rect x="42.1" y="482.8" class="st4" width="42" height="40.3"/>
</g>
<g>
	<rect x="84.1" y="482.8" class="st4" width="42" height="40.3"/>
</g>
<g>
	<rect x="126.2" y="482.8" class="st22" width="42" height="40.3"/>
</g>
<g>
	<rect x="168.3" y="482.8" class="st4" width="42" height="40.3"/>
</g>
<g>
	<rect x="210.4" y="482.8" class="st4" width="42" height="40.3"/>
</g>
<g>
	<rect x="252.4" y="482.8" class="st4" width="42" height="40.3"/>
</g>
<g>
	<rect x="294.5" y="482.8" class="st4" width="42" height="40.3"/>
</g>
<g>
	<rect x="336.6" y="482.8" class="st4" width="42" height="40.3"/>
</g>
<g>
	<rect x="378.7" y="482.8" class="st4" width="42" height="40.3"/>
</g>
<g>
	<rect x="420.7" y="482.8" class="st4" width="42" height="40.3"/>
</g>
<g>
	<rect x="757.4" y="482.8" class="st4" width="42" height="40.3"/>
</g>
<g>
	<rect x="462.8" y="482.8" class="st4" width="42" height="40.3"/>
</g>
<g>
	<rect x="504.9" y="482.8" class="st4" width="42" height="40.3"/>
</g>
<g>
	<rect x="546.9" y="482.8" class="st4" width="42" height="40.3"/>
</g>
<g>
	<rect x="799.4" class="st70" width="42" height="40.3"/>
</g>
<g>
	<rect x="799.4" y="40.3" class="st71" width="42" height="40.3"/>
</g>
<g>
	<rect x="799.4" y="80.5" class="st72" width="42" height="40.3"/>
</g>
<g>
	<rect x="799.4" y="120.8" class="st4" width="42" height="40.3"/>
</g>
<g>
	<rect x="799.4" y="161.1" class="st4" width="42" height="40.3"/>
</g>
<g>
	<rect x="799.4" y="201.3" class="st4" width="42" height="40.3"/>
</g>
<g>
	<rect x="799.4" y="241.6" class="st4" width="42" height="40.3"/>
</g>
<g>
	<rect x="799.4" y="281.9" class="st4" width="42" height="40.3"/>
</g>
<g>
	<rect x="799.4" y="322.1" class="st4" width="42" height="40.3"/>
</g>
<g>
	<rect x="799.4" y="362.4" class="st4" width="42" height="40.3"/>
</g>
<g>
	<rect x="799.4" y="402.6" class="st4" width="42" height="40.3"/>
</g>
<g>
	<rect x="799.4" y="443" class="st4" width="42" height="40.3"/>
</g>
<g>
	<rect x="799.4" y="482.8" class="st4" width="42" height="40.3"/>
</g>
<g>
	<rect x="589" y="482.8" class="st4" width="42" height="40.3"/>
</g>
<g>
	<rect x="631.1" y="482.8" class="st4" width="42" height="40.3"/>
</g>
<g>
	<rect x="673.2" y="482.8" class="st4" width="42" height="40.3"/>
</g>
<g>
	<rect x="715.1" y="482.8" class="st4" width="42" height="40.3"/>
</g>
<g>
	<rect y="523" class="st4" width="42" height="40.3"/>
</g>
<g>
	<rect x="42.1" y="523" class="st4" width="42" height="40.3"/>
</g>
<g>
	<rect x="84.1" y="523" class="st4" width="42" height="40.3"/>
</g>
<g>
	<rect x="126.2" y="523" class="st4" width="42" height="40.3"/>
</g>
<g>
	<rect x="168.3" y="523" class="st4" width="42" height="40.3"/>
</g>
<g>
	<rect x="210.4" y="523" class="st4" width="42" height="40.3"/>
</g>
<g>
	<rect x="252.4" y="523" class="st4" width="42" height="40.3"/>
</g>
<g>
	<rect x="294.5" y="523" class="st4" width="42" height="40.3"/>
</g>
<g>
	<rect x="336.6" y="523" class="st4" width="42" height="40.3"/>
</g>
<g>
	<rect x="883.2" class="st45" width="42" height="40.3"/>
</g>
<g>
	<rect x="883.2" y="40.3" class="st46" width="42" height="40.3"/>
</g>
<g>
	<rect x="883.2" y="80.5" class="st47" width="42" height="40.3"/>
</g>
<g>
	<rect x="883.2" y="120.8" class="st4" width="42" height="40.3"/>
</g>
<g>
	<rect x="883.2" y="161.1" class="st4" width="42" height="40.3"/>
</g>
<g>
	<rect x="883.2" y="201.3" class="st48" width="42" height="40.3"/>
</g>
<g>
	<rect x="883.2" y="241.6" class="st49" width="42" height="40.3"/>
</g>
<g>
	<rect x="883.2" y="281.9" class="st4" width="42" height="40.3"/>
</g>
<g>
	<rect x="883.2" y="322.1" class="st4" width="42" height="40.3"/>
</g>
<g>
	<rect x="883.2" y="362.4" class="st4" width="42" height="40.3"/>
</g>
<g>
	<rect x="883.2" y="402.6" class="st4" width="42" height="40.3"/>
</g>
<g>
	<rect x="883.2" y="443" class="st4" width="42" height="40.3"/>
</g>
<g>
	<rect x="883.2" y="482.8" class="st4" width="42" height="40.3"/>
</g>
<g>
	<rect x="883.2" y="523" class="st4" width="42" height="40.3"/>
</g>
<g>
	<rect x="378.7" y="523" class="st4" width="42" height="40.3"/>
</g>
<g>
	<rect x="841.1" class="st50" width="42" height="40.3"/>
</g>
<g>
	<rect x="841.1" y="40.3" class="st51" width="42" height="40.3"/>
</g>
<g>
	<rect x="841.1" y="80.5" class="st52" width="42" height="40.3"/>
</g>
<g>
	<rect x="841.1" y="120.8" class="st53" width="42" height="40.3"/>
</g>
<g class="st87">
	<rect x="841.1" y="161.1" class="st4" width="42" height="40.3"/>
</g>
<g class="st80">
	<rect x="841.1" y="201.3" class="st4" width="42" height="40.3"/>
</g>
<g>
	<rect x="841.1" y="241.6" class="st4" width="42" height="40.3"/>
</g>
<g>
	<rect x="841.1" y="281.9" class="st4" width="42" height="40.3"/>
</g>
<g>
	<rect x="841.1" y="322.1" class="st4" width="42" height="40.3"/>
</g>
<g>
	<rect x="841.1" y="362.4" class="st4" width="42" height="40.3"/>
</g>
<g>
	<rect y="563.2" class="st7" width="42" height="40.3"/>
</g>
<g>
	<rect x="42.1" y="563.2" class="st4" width="42" height="40.3"/>
</g>
<g>
	<rect x="84.1" y="563.2" class="st4" width="42" height="40.3"/>
</g>
<g>
	<rect x="126.2" y="563.2" class="st4" width="42" height="40.3"/>
</g>
<g>
	<rect x="168.3" y="563.2" class="st34" width="42" height="40.3"/>
</g>
<g>
	<rect x="210.4" y="563.2" class="st4" width="42" height="40.3"/>
</g>
<g>
	<rect x="252.4" y="563.2" class="st4" width="42" height="40.3"/>
</g>
<g>
	<rect x="925.1" class="st34" width="42" height="40.3"/>
</g>
<g class="st35">
	<rect x="925.1" y="40.3" class="st4" width="42" height="40.3"/>
</g>
<g>
	<rect x="925.1" y="80.5" class="st36" width="42" height="40.3"/>
</g>
<g>
	<rect x="925.1" y="120.8" class="st37" width="42" height="40.3"/>
</g>
<g>
	<rect x="925.1" y="161.1" class="st4" width="42" height="40.3"/>
</g>
<g>
	<rect x="925.1" y="201.3" class="st4" width="42" height="40.3"/>
</g>
<g>
	<rect x="925.1" y="241.6" class="st38" width="42" height="40.3"/>
</g>
<g>
	<rect x="925.1" y="281.9" class="st4" width="42" height="40.3"/>
</g>
<g>
	<rect x="925.1" y="322.1" class="st4" width="42" height="40.3"/>
</g>
<g>
	<rect y="603.7" class="st6" width="42" height="40.3"/>
</g>
<g class="st5">
	<rect x="42.1" y="603.7" class="st4" width="42" height="40.3"/>
</g>
<g>
	<rect x="84.1" y="603.7" class="st4" width="42" height="40.3"/>
</g>
<g>
	<rect x="966.6" class="st14" width="42" height="40.3"/>
</g>
<g>
	<rect x="966.6" y="40.3" class="st15" width="42" height="40.3"/>
</g>
<g>
	<rect x="966.6" y="80.5" class="st16" width="42" height="40.3"/>
</g>
<g>
	<rect x="966.6" y="120.8" class="st17" width="42" height="40.3"/>
</g>
<g>
	<rect x="966.6" y="161.1" class="st18" width="42" height="40.3"/>
</g>
<g>
	<rect x="966.6" y="201.3" class="st4" width="42" height="40.3"/>
</g>
<g>
	<rect x="966.6" y="241.6" class="st4" width="42" height="40.3"/>
</g>
<g>
	<rect x="966.6" y="281.9" class="st19" width="42" height="40.3"/>
</g>
<g>
	<rect x="966.6" y="322.1" class="st4" width="42" height="40.3"/>
</g>
<g>
	<rect x="966.6" y="362.4" class="st4" width="42" height="40.3"/>
</g>
<g>
	<rect x="966.6" y="402.6" class="st4" width="42" height="40.3"/>
</g>
<g>
	<rect x="966.6" y="443" class="st4" width="42" height="40.3"/>
</g>
<g>
	<rect x="966.6" y="482.8" class="st4" width="42" height="40.3"/>
</g>
<g>
	<rect x="966.6" y="523" class="st4" width="42" height="40.3"/>
</g>
<g>
	<rect x="966.6" y="563.2" class="st4" width="42" height="40.3"/>
</g>
<g>
	<rect x="966.6" y="603.7" class="st4" width="42" height="40.3"/>
</g>
<g>
	<rect x="126.2" y="603.7" class="st4" width="42" height="40.3"/>
</g>
<g>
	<rect x="168.3" y="603.7" class="st4" width="42" height="40.3"/>
</g>
<g>
	<rect x="210.4" y="603.7" class="st33" width="42" height="40.3"/>
</g>
<g>
	<rect x="252.4" y="603.7" class="st4" width="42" height="40.3"/>
</g>
<g>
	<rect x="294.5" y="603.7" class="st4" width="42" height="40.3"/>
</g>
<g>
	<rect x="336.6" y="603.7" class="st4" width="42" height="40.3"/>
</g>
<g>
	<rect x="378.7" y="603.7" class="st4" width="42" height="40.3"/>
</g>
<g>
	<rect x="420.7" y="603.7" class="st4" width="42" height="40.3"/>
</g>
<g>
	<rect x="462.8" y="603.7" class="st4" width="42" height="40.3"/>
</g>
<g>
	<rect x="504.9" y="603.7" class="st4" width="42" height="40.3"/>
</g>
<g>
	<rect x="546.9" y="603.7" class="st4" width="42" height="40.3"/>
</g>
<g>
	<rect x="589" y="603.7" class="st4" width="42" height="40.3"/>
</g>
<g>
	<rect x="631.1" y="603.7" class="st4" width="42" height="40.3"/>
</g>
<g>
	<rect x="673.2" y="603.7" class="st4" width="42" height="40.3"/>
</g>
<g>
	<rect x="715.1" y="603.7" class="st4" width="42" height="40.3"/>
</g>
<g>
	<rect x="757.4" y="603.7" class="st4" width="42" height="40.3"/>
</g>
<g>
	<rect x="799.4" y="603.7" class="st4" width="42" height="40.3"/>
</g>
<g>
	<rect x="883.2" y="603.7" class="st4" width="42" height="40.3"/>
</g>
<g>
	<rect x="841.1" y="603.7" class="st4" width="42" height="40.3"/>
</g>
<g>
	<rect x="925.1" y="603.7" class="st4" width="42" height="40.3"/>
</g>
<g>
	<rect x="925.1" y="362.4" class="st4" width="42" height="40.3"/>
</g>
<g>
	<rect x="925.1" y="402.6" class="st4" width="42" height="40.3"/>
</g>
<g>
	<rect x="925.1" y="443" class="st4" width="42" height="40.3"/>
</g>
<g>
	<rect x="925.1" y="482.8" class="st4" width="42" height="40.3"/>
</g>
<g>
	<rect x="925.1" y="523" class="st4" width="42" height="40.3"/>
</g>
<g>
	<rect x="925.1" y="563.2" class="st4" width="42" height="40.3"/>
</g>
<g class="st5">
	<rect x="294.5" y="563.2" class="st4" width="42" height="40.3"/>
</g>
<g>
	<rect x="336.6" y="563.2" class="st4" width="42" height="40.3"/>
</g>
<g>
	<rect x="378.7" y="563.2" class="st4" width="42" height="40.3"/>
</g>
<g>
	<rect x="420.7" y="563.2" class="st4" width="42" height="40.3"/>
</g>
<g>
	<rect x="462.8" y="563.2" class="st4" width="42" height="40.3"/>
</g>
<g>
	<rect x="504.9" y="563.2" class="st4" width="42" height="40.3"/>
</g>
<g>
	<rect x="546.9" y="563.2" class="st4" width="42" height="40.3"/>
</g>
<g>
	<rect x="589" y="563.2" class="st4" width="42" height="40.3"/>
</g>
<g>
	<rect x="631.1" y="563.2" class="st82" width="42" height="40.3"/>
</g>
<g>
	<rect x="673.2" y="563.2" class="st4" width="42" height="40.3"/>
</g>
<g>
	<rect x="715.1" y="563.2" class="st4" width="42" height="40.3"/>
</g>
<g>
	<rect x="757.4" y="563.2" class="st4" width="42" height="40.3"/>
</g>
<g>
	<rect x="799.4" y="563.2" class="st4" width="42" height="40.3"/>
</g>
<g>
	<rect x="883.2" y="563.2" class="st4" width="42" height="40.3"/>
</g>
<g>
	<rect x="841.1" y="563.2" class="st4" width="42" height="40.3"/>
</g>
<g>
	<rect x="841.1" y="402.6" class="st14" width="42" height="40.3"/>
</g>
<g>
	<rect x="841.1" y="443" class="st4" width="42" height="40.3"/>
</g>
<g>
	<rect x="841.1" y="482.8" class="st4" width="42" height="40.3"/>
</g>
<g>
	<rect x="841.1" y="523" class="st4" width="42" height="40.3"/>
</g>
<g>
	<rect x="420.7" y="523" class="st4" width="42" height="40.3"/>
</g>
<g>
	<rect x="757.4" y="523" class="st4" width="42" height="40.3"/>
</g>
<g>
	<rect x="462.8" y="523" class="st4" width="42" height="40.3"/>
</g>
<g>
	<rect x="1008.5" class="st61" width="42" height="40.3"/>
</g>
<g>
	<rect x="1008.5" y="40.3" class="st62" width="42" height="40.3"/>
</g>
<g>
	<rect x="1008.5" y="80.5" class="st13" width="42" height="40.3"/>
</g>
<g>
	<rect x="1008.5" y="120.8" class="st63" width="42" height="40.3"/>
</g>
<g>
	<rect x="1008.5" y="161.1" class="st4" width="42" height="40.3"/>
</g>
<g>
	<rect x="1008.5" y="201.3" class="st4" width="42" height="40.3"/>
</g>
<g>
	<rect y="644.3" class="st4" width="42" height="40.3"/>
</g>
<g>
	<rect x="42.1" y="644.3" class="st13" width="42" height="40.3"/>
</g>
<g>
	<rect x="84.1" y="644.3" class="st4" width="42" height="40.3"/>
</g>
<g>
	<rect x="126.2" y="644.3" class="st23" width="42" height="40.3"/>
</g>
<g>
	<rect x="168.3" y="644.3" class="st4" width="42" height="40.3"/>
</g>
<g>
	<rect x="210.4" y="644.3" class="st4" width="42" height="40.3"/>
</g>
<g>
	<rect x="252.4" y="644.3" class="st4" width="42" height="40.3"/>
</g>
<g>
	<rect x="294.5" y="644.3" class="st4" width="42" height="40.3"/>
</g>
<g>
	<rect x="336.6" y="644.3" class="st48" width="42" height="40.3"/>
</g>
<g>
	<rect x="378.7" y="644.3" class="st55" width="42" height="40.3"/>
</g>
<g>
	<rect x="420.7" y="644.3" class="st4" width="42" height="40.3"/>
</g>
<g>
	<rect x="462.8" y="644.3" class="st4" width="42" height="40.3"/>
</g>
<g>
	<rect x="504.9" y="644.3" class="st4" width="42" height="40.3"/>
</g>
<g>
	<rect x="546.9" y="644.3" class="st4" width="42" height="40.3"/>
</g>
<g class="st5">
	<rect x="589" y="644.3" class="st4" width="42" height="40.3"/>
</g>
<g>
	<rect x="631.1" y="644.3" class="st4" width="42" height="40.3"/>
</g>
<g class="st87">
	<rect x="673.2" y="644.3" class="st4" width="42" height="40.3"/>
</g>
<g class="st87">
	<rect x="715.1" y="644.3" class="st4" width="42" height="40.3"/>
</g>
<g>
	<rect x="757.4" y="644.3" class="st4" width="42" height="40.3"/>
</g>
<g>
	<rect x="799.4" y="644.3" class="st4" width="42" height="40.3"/>
</g>
<g>
	<rect x="883.2" y="644.3" class="st48" width="42" height="40.3"/>
</g>
<g class="st80">
	<rect x="841.1" y="644.3" class="st4" width="42" height="40.3"/>
</g>
<g>
	<rect x="925.1" y="644.3" class="st4" width="42" height="40.3"/>
</g>
<g>
	<rect x="966.6" y="644.3" class="st4" width="42" height="40.3"/>
</g>
<g>
	<rect x="1008.5" y="644.3" class="st4" width="42" height="40.3"/>
</g>
<g>
	<rect x="1008.5" y="241.6" class="st4" width="42" height="40.3"/>
</g>
<g class="st5">
	<rect x="1008.5" y="281.9" class="st4" width="42" height="40.3"/>
</g>
<g class="st5">
	<rect y="684.9" class="st4" width="42" height="40.3"/>
</g>
<g>
	<rect x="42.1" y="684.9" class="st4" width="42" height="40.3"/>
</g>
<g>
	<rect x="84.1" y="684.9" class="st19" width="42" height="40.3"/>
</g>
<g>
	<rect x="126.2" y="684.9" class="st4" width="42" height="40.3"/>
</g>
<g>
	<rect x="1092.2" class="st20" width="42" height="40.3"/>
</g>
<g class="st21">
	<rect x="1092.2" y="40.3" class="st4" width="42" height="40.3"/>
</g>
<g>
	<rect x="1092.2" y="80.5" class="st22" width="42" height="40.3"/>
</g>
<g class="st21">
	<rect x="1092.2" y="120.8" class="st4" width="42" height="40.3"/>
</g>
<g>
	<rect x="1092.2" y="161.1" class="st4" width="42" height="40.3"/>
</g>
<g>
	<rect x="1092.2" y="201.3" class="st23" width="42" height="40.3"/>
</g>
<g>
	<rect x="1092.2" y="241.6" class="st4" width="42" height="40.3"/>
</g>
<g>
	<rect x="1092.2" y="281.9" class="st4" width="42" height="40.3"/>
</g>
<g>
	<rect x="1092.2" y="322.1" class="st4" width="42" height="40.3"/>
</g>
<g>
	<rect x="1092.2" y="362.4" class="st4" width="42" height="40.3"/>
</g>
<g>
	<rect x="1092.2" y="402.6" class="st4" width="42" height="40.3"/>
</g>
<g>
	<rect x="1092.2" y="443" class="st4" width="42" height="40.3"/>
</g>
<g>
	<rect x="1092.2" y="482.8" class="st22" width="42" height="40.3"/>
</g>
<g>
	<rect x="1092.2" y="523" class="st4" width="42" height="40.3"/>
</g>
<g>
	<rect x="1092.2" y="563.2" class="st4" width="42" height="40.3"/>
</g>
<g>
	<rect x="1092.2" y="603.7" class="st4" width="42" height="40.3"/>
</g>
<g class="st5">
	<rect x="1092.2" y="644.3" class="st23" width="42" height="40.3"/>
</g>
<g>
	<rect x="1092.2" y="684.9" class="st4" width="42" height="40.3"/>
</g>
<g>
	<rect x="168.3" y="684.9" class="st4" width="42" height="40.3"/>
</g>
<g>
	<rect x="210.4" y="684.9" class="st4" width="42" height="40.3"/>
</g>
<g>
	<rect x="1133.4" class="st29" width="42" height="40.3"/>
</g>
<g>
	<rect x="1133.4" y="40.3" class="st30" width="42" height="40.3"/>
</g>
<g>
	<rect x="1133.4" y="80.5" class="st31" width="42" height="40.3"/>
</g>
<g>
	<rect x="1133.4" y="120.8" class="st4" width="42" height="40.3"/>
</g>
<g>
	<rect x="1133.4" y="161.1" class="st32" width="42" height="40.3"/>
</g>
<g>
	<rect x="1133.4" y="201.3" class="st4" width="42" height="40.3"/>
</g>
<g>
	<rect x="1133.4" y="241.6" class="st4" width="42" height="40.3"/>
</g>
<g>
	<rect x="1133.4" y="281.9" class="st4" width="42" height="40.3"/>
</g>
<g>
	<rect x="1133.4" y="322.1" class="st33" width="42" height="40.3"/>
</g>
<g>
	<rect x="1133.4" y="362.4" class="st4" width="42" height="40.3"/>
</g>
<g>
	<rect x="1133.4" y="402.6" class="st4" width="42" height="40.3"/>
</g>
<g>
	<rect x="1133.4" y="443" class="st4" width="42" height="40.3"/>
</g>
<g>
	<rect x="1133.4" y="482.8" class="st4" width="42" height="40.3"/>
</g>
<g>
	<rect x="1133.4" y="523" class="st4" width="42" height="40.3"/>
</g>
<g>
	<rect x="1133.4" y="563.2" class="st4" width="42" height="40.3"/>
</g>
<g>
	<rect x="1133.4" y="603.7" class="st33" width="42" height="40.3"/>
</g>
<g>
	<rect x="1133.4" y="644.3" class="st4" width="42" height="40.3"/>
</g>
<g>
	<rect x="1133.4" y="684.9" class="st4" width="42" height="40.3"/>
</g>
<g>
	<rect x="252.4" y="684.9" class="st4" width="42" height="40.3"/>
</g>
<g>
	<rect x="294.5" y="684.9" class="st43" width="42" height="40.3"/>
</g>
<g>
	<rect x="336.6" y="684.9" class="st4" width="42" height="40.3"/>
</g>
<g>
	<rect x="378.7" y="684.9" class="st4" width="42" height="40.3"/>
</g>
<g>
	<rect x="420.7" y="684.9" class="st60" width="42" height="40.3"/>
</g>
<g>
	<rect x="1050.7" class="st57" width="42" height="40.3"/>
</g>
<g>
	<rect x="1050.7" y="40.3" class="st58" width="42" height="40.3"/>
</g>
<g>
	<rect x="1050.7" y="80.5" class="st59" width="42" height="40.3"/>
</g>
<g>
	<rect x="1050.7" y="120.8" class="st4" width="42" height="40.3"/>
</g>
<g>
	<rect x="1050.7" y="161.1" class="st4" width="42" height="40.3"/>
</g>
<g>
	<rect x="1050.7" y="201.3" class="st4" width="42" height="40.3"/>
</g>
<g>
	<rect x="1050.7" y="241.6" class="st4" width="42" height="40.3"/>
</g>
<g>
	<rect x="1050.7" y="281.9" class="st60" width="42" height="40.3"/>
</g>
<g>
	<rect x="1050.7" y="322.1" class="st4" width="42" height="40.3"/>
</g>
<g>
	<rect x="1050.7" y="362.4" class="st4" width="42" height="40.3"/>
</g>
<g>
	<rect x="1050.7" y="402.6" class="st4" width="42" height="40.3"/>
</g>
<g>
	<rect x="1050.7" y="443" class="st4" width="42" height="40.3"/>
</g>
<g>
	<rect x="1050.7" y="482.8" class="st4" width="42" height="40.3"/>
</g>
<g>
	<rect x="1050.7" y="603.7" class="st4" width="42" height="40.3"/>
</g>
<g>
	<rect x="1050.7" y="563.2" class="st4" width="42" height="40.3"/>
</g>
<g>
	<rect x="1050.7" y="523" class="st4" width="42" height="40.3"/>
</g>
<g>
	<rect x="1050.7" y="644.3" class="st4" width="42" height="40.3"/>
</g>
<g>
	<rect x="1050.7" y="684.9" class="st60" width="42" height="40.3"/>
</g>
<g class="st5">
	<rect x="462.8" y="684.9" class="st4" width="42" height="40.3"/>
</g>
<g>
	<rect x="504.9" y="684.9" class="st4" width="42" height="40.3"/>
</g>
<g>
	<rect x="546.9" y="684.9" class="st4" width="42" height="40.3"/>
</g>
<g>
	<rect x="589" y="684.9" class="st4" width="42" height="40.3"/>
</g>
<g>
	<rect x="631.1" y="684.9" class="st81" width="42" height="40.3"/>
</g>
<g>
	<rect x="673.2" y="684.9" class="st4" width="42" height="40.3"/>
</g>
<g>
	<rect x="715.1" y="684.9" class="st4" width="42" height="40.3"/>
</g>
<g>
	<rect x="757.4" y="684.9" class="st60" width="42" height="40.3"/>
</g>
<g>
	<rect x="799.4" y="684.9" class="st4" width="42" height="40.3"/>
</g>
<g>
	<rect x="883.2" y="684.9" class="st4" width="42" height="40.3"/>
</g>
<g>
	<rect x="841.1" y="684.9" class="st4" width="42" height="40.3"/>
</g>
<g>
	<rect x="925.1" y="684.9" class="st4" width="42" height="40.3"/>
</g>
<g>
	<rect x="966.6" y="684.9" class="st19" width="42" height="40.3"/>
</g>
<g class="st5">
	<rect x="1008.5" y="684.9" class="st4" width="42" height="40.3"/>
</g>
<g>
	<rect x="1008.5" y="322.1" class="st4" width="42" height="40.3"/>
</g>
<g>
	<rect x="1008.5" y="362.4" class="st4" width="42" height="40.3"/>
</g>
<g>
	<rect x="1008.5" y="402.6" class="st4" width="42" height="40.3"/>
</g>
<g class="st5">
	<rect y="765.6" class="st4" width="42" height="40.3"/>
</g>
<g>
	<rect x="42.1" y="765.6" class="st4" width="42" height="40.3"/>
</g>
<g>
	<rect x="84.1" y="765.6" class="st4" width="42" height="40.3"/>
</g>
<g>
	<rect x="126.2" y="765.6" class="st4" width="42" height="40.3"/>
</g>
<g>
	<rect x="168.3" y="765.6" class="st4" width="42" height="40.3"/>
</g>
<g>
	<rect x="210.4" y="765.6" class="st4" width="42" height="40.3"/>
</g>
<g>
	<rect x="252.4" y="765.6" class="st4" width="42" height="40.3"/>
</g>
<g>
	<rect x="294.5" y="765.6" class="st4" width="42" height="40.3"/>
</g>
<g>
	<rect x="336.6" y="765.6" class="st4" width="42" height="40.3"/>
</g>
<g>
	<rect x="378.7" y="765.6" class="st4" width="42" height="40.3"/>
</g>
<g>
	<rect x="420.7" y="765.6" class="st4" width="42" height="40.3"/>
</g>
<g>
	<rect x="462.8" y="765.6" class="st4" width="42" height="40.3"/>
</g>
<g>
	<rect x="504.9" y="765.6" class="st4" width="42" height="40.3"/>
</g>
<g>
	<rect x="546.9" y="765.6" class="st4" width="42" height="40.3"/>
</g>
<g>
	<rect x="589" y="765.6" class="st4" width="42" height="40.3"/>
</g>
<g>
	<rect x="631.1" y="765.6" class="st4" width="42" height="40.3"/>
</g>
<g>
	<rect x="673.2" y="765.6" class="st4" width="42" height="40.3"/>
</g>
<g>
	<rect x="715.1" y="765.6" class="st4" width="42" height="40.3"/>
</g>
<g>
	<rect x="757.4" y="765.6" class="st4" width="42" height="40.3"/>
</g>
<g>
	<rect x="799.4" y="765.6" class="st4" width="42" height="40.3"/>
</g>
<g>
	<rect x="883.2" y="765.6" class="st4" width="42" height="40.3"/>
</g>
<g>
	<rect x="966.6" y="765.6" class="st4" width="42" height="40.3"/>
</g>
<g>
	<rect x="925.1" y="765.6" class="st4" width="42" height="40.3"/>
</g>
<g>
	<rect x="841.1" y="765.6" class="st14" width="42" height="40.3"/>
</g>
<g>
	<rect x="1092.2" y="765.6" class="st4" width="42" height="40.3"/>
</g>
<g>
	<rect x="1133.4" y="765.6" class="st4" width="42" height="40.3"/>
</g>
<g>
	<rect x="1050.7" y="765.6" class="st4" width="42" height="40.3"/>
</g>
<g>
	<rect x="1008.5" y="765.6" class="st4" width="42" height="40.3"/>
</g>
<g>
	<rect x="1008.5" y="443" class="st4" width="42" height="40.3"/>
</g>
<g>
	<rect x="1008.5" y="482.8" class="st4" width="42" height="40.3"/>
</g>
<g>
	<rect x="1008.5" y="603.7" class="st4" width="42" height="40.3"/>
</g>
<g>
	<rect x="1008.5" y="563.2" class="st4" width="42" height="40.3"/>
</g>
<g>
	<rect y="725.2" class="st7" width="42" height="40.3"/>
</g>
<g>
	<rect x="42.1" y="725.2" class="st4" width="42" height="40.3"/>
</g>
<g>
	<rect x="84.1" y="725.2" class="st4" width="42" height="40.3"/>
</g>
<g>
	<rect x="126.2" y="725.2" class="st4" width="42" height="40.3"/>
</g>
<g>
	<rect x="168.3" y="725.2" class="st34" width="42" height="40.3"/>
</g>
<g>
	<rect x="210.4" y="725.2" class="st4" width="42" height="40.3"/>
</g>
<g>
	<rect x="252.4" y="725.2" class="st4" width="42" height="40.3"/>
</g>
<g>
	<rect x="966.6" y="725.2" class="st4" width="42" height="40.3"/>
</g>
<g>
	<rect x="925.1" y="725.2" class="st4" width="42" height="40.3"/>
</g>
<g class="st5">
	<rect x="294.5" y="725.2" class="st4" width="42" height="40.3"/>
</g>
<g>
	<rect x="336.6" y="725.2" class="st4" width="42" height="40.3"/>
</g>
<g>
	<rect x="378.7" y="725.2" class="st4" width="42" height="40.3"/>
</g>
<g>
	<rect x="420.7" y="725.2" class="st4" width="42" height="40.3"/>
</g>
<g>
	<rect x="462.8" y="725.2" class="st4" width="42" height="40.3"/>
</g>
<g>
	<rect x="504.9" y="725.2" class="st4" width="42" height="40.3"/>
</g>
<g>
	<rect x="546.9" y="725.2" class="st4" width="42" height="40.3"/>
</g>
<g>
	<rect x="589" y="725.2" class="st4" width="42" height="40.3"/>
</g>
<g>
	<rect x="631.1" y="725.2" class="st82" width="42" height="40.3"/>
</g>
<g>
	<rect x="673.2" y="725.2" class="st4" width="42" height="40.3"/>
</g>
<g>
	<rect x="715.1" y="725.2" class="st4" width="42" height="40.3"/>
</g>
<g>
	<rect x="757.4" y="725.2" class="st4" width="42" height="40.3"/>
</g>
<g>
	<rect x="799.4" y="725.2" class="st4" width="42" height="40.3"/>
</g>
<g>
	<rect x="883.2" y="725.2" class="st4" width="42" height="40.3"/>
</g>
<g>
	<rect x="1175.2" class="st45" width="42" height="40.3"/>
</g>
<g>
	<rect x="1175.2" y="40.3" class="st46" width="42" height="40.3"/>
</g>
<g>
	<rect x="1175.2" y="80.5" class="st47" width="42" height="40.3"/>
</g>
<g>
	<rect x="1175.2" y="120.8" class="st4" width="42" height="40.3"/>
</g>
<g>
	<rect x="1175.2" y="161.1" class="st4" width="42" height="40.3"/>
</g>
<g>
	<rect x="1175.2" y="201.3" class="st48" width="42" height="40.3"/>
</g>
<g>
	<rect x="1175.2" y="241.6" class="st49" width="42" height="40.3"/>
</g>
<g>
	<rect x="1175.2" y="281.9" class="st4" width="42" height="40.3"/>
</g>
<g>
	<rect x="1175.2" y="322.1" class="st4" width="42" height="40.3"/>
</g>
<g>
	<rect x="1175.2" y="362.4" class="st4" width="42" height="40.3"/>
</g>
<g>
	<rect x="1175.2" y="402.6" class="st4" width="42" height="40.3"/>
</g>
<g>
	<rect x="1175.2" y="443" class="st4" width="42" height="40.3"/>
</g>
<g>
	<rect x="1175.2" y="482.8" class="st4" width="42" height="40.3"/>
</g>
<g>
	<rect x="1175.2" y="523" class="st4" width="42" height="40.3"/>
</g>
<g>
	<rect x="1217.1" class="st34" width="42" height="40.3"/>
</g>
<g>
	<rect x="1217.1" y="40.3" class="st4" width="42" height="40.3"/>
</g>
<g>
	<rect x="1217.1" y="80.5" class="st36" width="42" height="40.3"/>
</g>
<g>
	<rect x="1217.1" y="120.8" class="st37" width="42" height="40.3"/>
</g>
<g>
	<rect x="1217.1" y="161.1" class="st4" width="42" height="40.3"/>
</g>
<g>
	<rect x="1217.1" y="201.3" class="st4" width="42" height="40.3"/>
</g>
<g>
	<rect x="1217.1" y="241.6" class="st38" width="42" height="40.3"/>
</g>
<g>
	<rect x="1217.1" y="281.9" class="st4" width="42" height="40.3"/>
</g>
<g>
	<rect x="1217.1" y="322.1" class="st4" width="42" height="40.3"/>
</g>
<g>
	<rect x="1175.2" y="603.7" class="st4" width="42" height="40.3"/>
</g>
<g>
	<rect x="1217.1" y="603.7" class="st4" width="42" height="40.3"/>
</g>
<g>
	<rect x="1217.1" y="362.4" class="st4" width="42" height="40.3"/>
</g>
<g>
	<rect x="1217.1" y="402.6" class="st4" width="42" height="40.3"/>
</g>
<g>
	<rect x="1217.1" y="443" class="st4" width="42" height="40.3"/>
</g>
<g>
	<rect x="1217.1" y="482.8" class="st4" width="42" height="40.3"/>
</g>
<g>
	<rect x="1217.1" y="523" class="st4" width="42" height="40.3"/>
</g>
<g>
	<rect x="1217.1" y="563.2" class="st4" width="42" height="40.3"/>
</g>
<g>
	<rect x="1175.2" y="563.2" class="st4" width="42" height="40.3"/>
</g>
<g>
	<rect x="1175.2" y="644.3" class="st48" width="42" height="40.3"/>
</g>
<g>
	<rect x="1217.1" y="644.3" class="st4" width="42" height="40.3"/>
</g>
<g>
	<rect x="1175.2" y="684.9" class="st4" width="42" height="40.3"/>
</g>
<g>
	<rect x="1217.1" y="684.9" class="st4" width="42" height="40.3"/>
</g>
<g>
	<rect x="1175.2" y="765.6" class="st4" width="42" height="40.3"/>
</g>
<g>
	<rect x="1217.1" y="765.6" class="st4" width="42" height="40.3"/>
</g>
<g>
	<rect x="1217.1" y="725.2" class="st4" width="42" height="40.3"/>
</g>
<g>
	<rect x="1175.2" y="725.2" class="st4" width="42" height="40.3"/>
</g>
<g>
	<rect x="841.1" y="725.2" class="st4" width="42" height="40.3"/>
</g>
<g>
	<rect x="1092.2" y="725.2" class="st4" width="42" height="40.3"/>
</g>
<g>
	<rect x="1133.4" y="725.2" class="st4" width="42" height="40.3"/>
</g>
<g>
	<rect x="1050.7" y="725.2" class="st4" width="42" height="40.3"/>
</g>
<g>
	<rect x="1008.5" y="725.2" class="st4" width="42" height="40.3"/>
</g>
<g>
	<rect x="1008.5" y="523" class="st4" width="42" height="40.3"/>
</g>
<g>
	<rect x="504.9" y="523" class="st4" width="42" height="40.3"/>
</g>
<g>
	<rect x="546.9" y="523" class="st4" width="42" height="40.3"/>
</g>
<g>
	<rect x="799.4" y="523" class="st4" width="42" height="40.3"/>
</g>
<g>
	<rect x="589" y="523" class="st4" width="42" height="40.3"/>
</g>
<g>
	<rect x="631.1" y="523" class="st4" width="42" height="40.3"/>
</g>
<g>
	<rect x="673.2" y="523" class="st4" width="42" height="40.3"/>
</g>
<g>
	<rect x="715.1" y="523" class="st4" width="42" height="40.3"/>
</g>
<g>
	<rect y="806" class="st4" width="42" height="40.3"/>
</g>
<g>
	<rect x="42.1" y="806" class="st4" width="42" height="40.3"/>
</g>
<g>
	<rect x="84.1" y="806" class="st4" width="42" height="40.3"/>
</g>
<g>
	<rect x="126.2" y="806" class="st4" width="42" height="40.3"/>
</g>
<g>
	<rect x="168.3" y="806" class="st4" width="42" height="40.3"/>
</g>
<g>
	<rect x="210.4" y="806" class="st4" width="42" height="40.3"/>
</g>
<g>
	<rect x="252.4" y="806" class="st4" width="42" height="40.3"/>
</g>
<g>
	<rect x="294.5" y="806" class="st4" width="42" height="40.3"/>
</g>
<g>
	<rect x="336.6" y="806" class="st4" width="42" height="40.3"/>
</g>
<g>
	<rect x="883.2" y="806" class="st4" width="42" height="40.3"/>
</g>
<g>
	<rect x="378.7" y="806" class="st4" width="42" height="40.3"/>
</g>
<g>
	<rect x="966.6" y="806" class="st4" width="42" height="40.3"/>
</g>
<g>
	<rect x="925.1" y="806" class="st4" width="42" height="40.3"/>
</g>
<g>
	<rect x="841.1" y="806" class="st4" width="42" height="40.3"/>
</g>
<g>
	<rect x="420.7" y="806" class="st4" width="42" height="40.3"/>
</g>
<g>
	<rect x="757.4" y="806" class="st4" width="42" height="40.3"/>
</g>
<g>
	<rect x="462.8" y="806" class="st4" width="42" height="40.3"/>
</g>
<g>
	<rect x="1092.2" y="806" class="st4" width="42" height="40.3"/>
</g>
<g>
	<rect x="1133.4" y="806" class="st4" width="42" height="40.3"/>
</g>
<g>
	<rect x="1050.7" y="806" class="st4" width="42" height="40.3"/>
</g>
<g>
	<rect x="1175.2" y="806" class="st4" width="42" height="40.3"/>
</g>
<g>
	<rect x="1217.1" y="806" class="st4" width="42" height="40.3"/>
</g>
<g>
	<rect x="1008.5" y="806" class="st4" width="42" height="40.3"/>
</g>
<g>
	<rect x="504.9" y="806" class="st4" width="42" height="40.3"/>
</g>
<g>
	<rect x="546.9" y="806" class="st4" width="42" height="40.3"/>
</g>
<g>
	<rect x="799.4" y="806" class="st4" width="42" height="40.3"/>
</g>
<g>
	<rect x="589" y="806" class="st4" width="42" height="40.3"/>
</g>
<g>
	<rect x="631.1" y="806" class="st4" width="42" height="40.3"/>
</g>
<g>
	<rect x="673.2" y="806" class="st4" width="42" height="40.3"/>
</g>
<g>
	<rect x="715.1" y="806" class="st4" width="42" height="40.3"/>
</g>
</svg>
